<?xml version="1.0" standalone="no"?>
<!DOCTYPE svg PUBLIC "-//W3C//DTD SVG 20010904//EN"
 "http://www.w3.org/TR/2001/REC-SVG-20010904/DTD/svg10.dtd">
<svg version="1.0" xmlns="http://www.w3.org/2000/svg"
 width="360.000000pt" height="360.000000pt" viewBox="0 0 360.000000 360.000000"
 preserveAspectRatio="xMidYMid meet">

<g transform="translate(0.000000,360.000000) scale(0.100000,-0.100000)"
fill="#000000" stroke="none">
<path d="M1703 3032 c-28 -10 -67 -31 -87 -46 l-36 -27 -42 25 c-26 15 -68 27
-105 32 -53 5 -68 3 -115 -18 -65 -31 -105 -69 -131 -128 -29 -63 -26 -127 12
-238 33 -98 38 -132 20 -132 -22 0 -96 -60 -122 -98 l-26 -40 -109 -4 c-102
-3 -112 -5 -152 -33 -163 -113 -152 -340 19 -427 30 -16 67 -28 83 -28 37 0
36 -14 -2 -30 -107 -44 -157 -214 -96 -329 14 -28 26 -63 26 -78 0 -34 34
-104 66 -136 l25 -25 -23 -44 c-26 -50 -33 -178 -10 -186 6 -2 10 -8 7 -13
-18 -29 82 -132 144 -149 l36 -9 0 -68 c1 -103 57 -190 147 -227 53 -23 146
-20 204 5 38 16 53 18 72 10 12 -6 48 -11 78 -11 48 0 70 8 187 69 332 173
421 226 452 268 l30 41 66 -5 c164 -13 276 109 287 314 4 86 6 93 26 93 37 0
121 46 147 81 57 75 70 120 58 202 -7 54 -5 61 26 113 21 35 36 76 40 107 12
95 -45 199 -135 248 l-29 16 44 58 c53 68 60 88 60 175 0 73 -18 119 -67 169
-64 65 -182 90 -265 56 -19 -8 -37 -15 -39 -15 -9 0 -3 48 11 85 8 22 14 58
14 80 0 50 -31 131 -48 127 -8 -2 -11 3 -8 12 6 16 -32 49 -93 82 -52 27 -182
24 -281 -8 l-76 -25 -31 38 c-61 72 -169 102 -259 71z m737 -386 c0 -3 -4 -8
-10 -11 -5 -3 -10 -1 -10 4 0 6 5 11 10 11 6 0 10 -2 10 -4z m-544 -131 c158
-30 268 -106 327 -224 30 -62 32 -72 32 -176 l0 -110 -140 0 -140 0 -6 70 c-9
114 -41 155 -139 176 -113 24 -208 -31 -229 -133 -14 -61 -13 -488 0 -509 4
-7 4 -18 -1 -24 -14 -17 6 -121 29 -154 64 -89 250 -88 315 2 16 21 21 46 23
99 1 39 6 75 11 80 5 5 69 7 143 6 l134 -3 0 -110 c0 -105 -2 -114 -33 -177
-96 -195 -351 -282 -620 -212 -80 21 -150 61 -208 118 -110 111 -124 171 -124
567 0 169 5 320 11 354 36 196 187 331 409 364 85 13 122 12 206 -4z"/>
<path d="M1625 2451 c-143 -41 -244 -132 -280 -253 -14 -47 -17 -174 -16 -571
1 -114 4 -166 11 -162 7 4 9 -2 4 -19 -9 -36 35 -125 86 -176 48 -48 139 -94
219 -111 86 -18 263 -7 334 21 139 53 215 157 225 306 l5 84 -97 0 -96 0 0
-47 c-1 -123 -91 -205 -235 -214 -63 -4 -148 33 -189 81 -52 62 -58 109 -54
447 3 278 5 311 22 343 26 49 55 79 101 103 56 30 182 30 240 0 75 -39 115
-105 115 -188 l0 -45 95 0 95 0 0 65 c0 165 -99 290 -267 336 -87 24 -235 24
-318 0z"/>
</g>
</svg>
